<?xml version="1.0" encoding="UTF-8"?>
<svg id="Layer_1" xmlns="http://www.w3.org/2000/svg" version="1.1" viewBox="0 0 128 128">
  <!-- Generator: Adobe Illustrator 29.2.1, SVG Export Plug-In . SVG Version: 2.1.0 Build 116)  -->
  <defs>
    <style>
      .st0 {
        fill: #b99af5;
      }
    </style>
  </defs>
  <g id="Instagram">
    <path class="st0" d="M44.9,18c-5,.2-8.5,1-11.5,2.2-3.1,1.2-5.7,2.8-8.4,5.5s-4.2,5.3-5.4,8.4c-1.2,3-2,6.4-2.2,11.5-.2,5-.3,6.6-.2,19.5,0,12.8.1,14.4.3,19.5.2,5,1,8.5,2.2,11.5,1.2,3.1,2.8,5.7,5.5,8.4,2.6,2.6,5.3,4.2,8.4,5.4,3,1.2,6.4,2,11.5,2.2,5,.2,6.7.3,19.5.2,12.8-.1,14.4,0,19.5-.3s8.5-1,11.5-2.2c3.1-1.2,5.7-2.8,8.4-5.5,2.6-2.6,4.2-5.3,5.4-8.4,1.2-3,2-6.4,2.2-11.5.2-5,.3-6.7.2-19.5s0-14.4-.3-19.5-1-8.5-2.2-11.5c-1.2-3.1-2.8-5.7-5.5-8.4-2.6-2.6-5.3-4.2-8.4-5.4-3-1.2-6.4-2-11.5-2.2s-6.7-.3-19.5-.2-14.4,0-19.5.3M45.5,103.4c-4.6-.2-7.1-1-8.8-1.6-2.2-.9-3.8-1.9-5.4-3.5-1.7-1.6-2.7-3.2-3.5-5.4-.6-1.7-1.4-4.2-1.6-8.8-.2-5-.3-6.5-.3-19.1s0-14.1.2-19.1c.2-4.6,1-7.1,1.6-8.8.9-2.2,1.9-3.8,3.5-5.4,1.6-1.7,3.2-2.7,5.4-3.5,1.7-.7,4.2-1.4,8.8-1.6,5-.2,6.5-.3,19.1-.3s14.1,0,19.1.2c4.6.2,7.1,1,8.8,1.6,2.2.9,3.8,1.9,5.4,3.5,1.7,1.7,2.7,3.2,3.5,5.4.7,1.7,1.4,4.2,1.6,8.8.2,5,.3,6.5.3,19.1s0,14.1-.2,19.1c-.2,4.6-1,7.1-1.6,8.8-.9,2.2-1.9,3.8-3.5,5.4s-3.2,2.7-5.4,3.5c-1.7.6-4.2,1.4-8.8,1.6-5,.2-6.5.3-19.1.3-12.6,0-14.1,0-19.1-.2M84,39.7c0,3.1,2.5,5.7,5.7,5.7s5.7-2.5,5.7-5.7-2.6-5.7-5.7-5.7h0c-3.2,0-5.7,2.5-5.7,5.7M40.2,65c0,13.4,10.9,24.2,24.3,24.2s24.3-10.9,24.2-24.3-10.8-24.3-24.2-24.2-24.3,10.9-24.3,24.3M48.7,65c0-8.7,7-15.8,15.7-15.8s15.8,7,15.8,15.7-7,15.8-15.7,15.8c-8.7,0-15.7-7-15.8-15.7h0"/>
  </g>
</svg>