<?xml version="1.0" encoding="UTF-8"?>
<svg id="Layer_1" xmlns="http://www.w3.org/2000/svg" version="1.1" viewBox="0 0 128 128">
  <!-- Generator: Adobe Illustrator 29.2.1, SVG Export Plug-In . SVG Version: 2.1.0 Build 116)  -->
  <defs>
    <style>
      .st0 {
        fill: #84a1fd;
      }
    </style>
  </defs>
  <g id="BlueSky">
    <path class="st0" d="M34.1,22.6c12.1,9.1,25.1,27.5,29.9,37.4,4.8-9.9,17.8-28.3,29.9-37.4,8.7-6.6,22.9-11.6,22.9,4.5s-1.8,27.1-2.9,31c-3.8,13.5-17.5,16.9-29.7,14.8,21.4,3.6,26.8,15.7,15.1,27.7-22.3,22.9-32-5.7-34.5-13.1-.5-1.3-.7-2-.7-1.4,0-.5-.2,0-.7,1.4-2.5,7.3-12.2,35.9-34.5,13.1-11.7-12-6.3-24.1,15.1-27.7-12.2,2.1-26-1.4-29.7-14.8-1.1-3.9-2.9-27.7-2.9-31,0-16.1,14.2-11.1,22.9-4.5h-.2Z"/>
  </g>
</svg>