<?xml version="1.0" encoding="utf-8"?>
<!-- Generator: Adobe Illustrator 25.1.0, SVG Export Plug-In . SVG Version: 6.00 Build 0)  -->
<svg version="1.1" id="Layer_1" xmlns="http://www.w3.org/2000/svg" xmlns:xlink="http://www.w3.org/1999/xlink" x="0px" y="0px"
	 viewBox="0 0 128 128" style="enable-background:new 0 0 128 128;" xml:space="preserve">
<style type="text/css">
	.st0{display:none;fill-rule:evenodd;clip-rule:evenodd;}
	.st1{display:none;}
	.st2{display:inline;fill-rule:evenodd;clip-rule:evenodd;fill:#FFFFFF;}
	.st3{fill-rule:evenodd;clip-rule:evenodd;fill:#EDE6BC;}
</style>
<rect class="st0" width="128" height="128"/>
<g id="no_rounding" class="st1">
	<polygon class="st2" points="64,85.5 12.8,52 12.8,100.6 115.2,100.6 115.2,52 	"/>
	<polygon class="st2" points="64,68 115.2,34.5 115.2,27.4 12.8,27.4 12.8,34.5 	"/>
</g>
<g id="rounded">
	<path class="st3" d="M64,85.5L15.9,54c-1.3-0.9-3.1,0.1-3.1,1.7v39.9c0,2.8,2.2,5,5,5h92.3c2.8,0,5-2.2,5-5V55.7
		c0-1.6-1.8-2.5-3.1-1.7L64,85.5z"/>
	<path class="st3" d="M64,68l49.1-32.1c1.3-0.9,2.1-2.3,2.1-3.9l0,0c0-2.6-2.1-4.6-4.6-4.6H17.5c-2.6,0-4.6,2.1-4.6,4.6l0,0
		c0,1.6,0.8,3,2.1,3.9L64,68z"/>
</g>
</svg>
