<?xml version="1.0" encoding="UTF-8"?>
<svg id="Layer_1" xmlns="http://www.w3.org/2000/svg" version="1.1" viewBox="0 0 128 128">
  <!-- Generator: Adobe Illustrator 29.2.1, SVG Export Plug-In . SVG Version: 2.1.0 Build 116)  -->
  <defs>
    <style>
      .st0 {
        fill: #e8b6b5;
        fill-rule: evenodd;
      }
    </style>
  </defs>
  <g id="LinkedIn">
    <path class="st0" d="M26.4,109h75.2c4.1,0,7.4-3.3,7.4-7.4V26.4c0-4.1-3.3-7.4-7.4-7.4H26.4c-4.1,0-7.4,3.3-7.4,7.4v75.2c0,4.1,3.3,7.4,7.4,7.4ZM53.4,53.4h12.6v6.3c1.7-3.4,6.6-7,13.1-7,12.4,0,16.7,5.6,16.7,19v24h-13.3v-21.2c0-7-1.4-10.9-6.5-10.9s-9.4,5.3-9.4,10.9v21.2h-13.2v-42.3h0ZM32.2,95.8h13.2v-42.4h-13.2v42.4ZM46.9,38.9c0,4.5-3.6,8.1-8.1,8.1s-8.1-3.6-8.1-8.1,3.6-8.1,8.1-8.1,8.1,3.6,8.1,8.1Z"/>
  </g>
</svg>